%TF.GenerationSoftware,KiCad,Pcbnew,8.99.0-unknown-5d7942a45f~181~ubuntu24.04.1*%
%TF.CreationDate,2024-12-03T15:17:09+01:00*%
%TF.ProjectId,she_diffVerst,7368655f-6469-4666-9656-657273742e6b,rev?*%
%TF.SameCoordinates,Original*%
%TF.FileFunction,Copper,L2,Bot*%
%TF.FilePolarity,Positive*%
%FSLAX46Y46*%
G04 Gerber Fmt 4.6, Leading zero omitted, Abs format (unit mm)*
G04 Created by KiCad (PCBNEW 8.99.0-unknown-5d7942a45f~181~ubuntu24.04.1) date 2024-12-03 15:17:09*
%MOMM*%
%LPD*%
G01*
G04 APERTURE LIST*
G04 Aperture macros list*
%AMRoundRect*
0 Rectangle with rounded corners*
0 $1 Rounding radius*
0 $2 $3 $4 $5 $6 $7 $8 $9 X,Y pos of 4 corners*
0 Add a 4 corners polygon primitive as box body*
4,1,4,$2,$3,$4,$5,$6,$7,$8,$9,$2,$3,0*
0 Add four circle primitives for the rounded corners*
1,1,$1+$1,$2,$3*
1,1,$1+$1,$4,$5*
1,1,$1+$1,$6,$7*
1,1,$1+$1,$8,$9*
0 Add four rect primitives between the rounded corners*
20,1,$1+$1,$2,$3,$4,$5,0*
20,1,$1+$1,$4,$5,$6,$7,0*
20,1,$1+$1,$6,$7,$8,$9,0*
20,1,$1+$1,$8,$9,$2,$3,0*%
G04 Aperture macros list end*
%TA.AperFunction,ComponentPad*%
%ADD10O,3.600000X2.080000*%
%TD*%
%TA.AperFunction,ComponentPad*%
%ADD11RoundRect,0.249999X1.550001X-0.790001X1.550001X0.790001X-1.550001X0.790001X-1.550001X-0.790001X0*%
%TD*%
%TA.AperFunction,ComponentPad*%
%ADD12O,1.600000X1.600000*%
%TD*%
%TA.AperFunction,ComponentPad*%
%ADD13R,1.600000X1.600000*%
%TD*%
%TA.AperFunction,ComponentPad*%
%ADD14RoundRect,0.249999X-1.550001X0.790001X-1.550001X-0.790001X1.550001X-0.790001X1.550001X0.790001X0*%
%TD*%
%TA.AperFunction,ComponentPad*%
%ADD15C,1.600000*%
%TD*%
%TA.AperFunction,SMDPad,CuDef*%
%ADD16RoundRect,0.249999X-1.425001X0.450001X-1.425001X-0.450001X1.425001X-0.450001X1.425001X0.450001X0*%
%TD*%
%TA.AperFunction,Conductor*%
%ADD17C,0.500000*%
%TD*%
G04 APERTURE END LIST*
D10*
%TO.P,J2,3,Pin_3*%
%TO.N,VSS*%
X163972500Y-106920000D03*
%TO.P,J2,2,Pin_2*%
%TO.N,U_opv1*%
X163972500Y-112000000D03*
D11*
%TO.P,J2,1,Pin_1*%
%TO.N,GND*%
X163972500Y-117080000D03*
%TD*%
D12*
%TO.P,U1,8,V+*%
%TO.N,VSS*%
X153810000Y-109500000D03*
%TO.P,U1,7*%
%TO.N,U_opv1*%
X153810000Y-112040000D03*
%TO.P,U1,6,-*%
%TO.N,Net-(U1B--)*%
X153810000Y-114580000D03*
%TO.P,U1,5,+*%
%TO.N,U_opv2*%
X153810000Y-117120000D03*
%TO.P,U1,4,V-*%
%TO.N,GND*%
X146190000Y-117120000D03*
%TO.P,U1,3,+*%
%TO.N,Net-(U1A-+)*%
X146190000Y-114580000D03*
%TO.P,U1,2,-*%
%TO.N,Net-(U1A--)*%
X146190000Y-112040000D03*
D13*
%TO.P,U1,1*%
%TO.N,U_opv2*%
X146190000Y-109500000D03*
%TD*%
D14*
%TO.P,J1,1,Pin_1*%
%TO.N,Net-(J1-Pin_1)*%
X126277500Y-109960000D03*
D10*
%TO.P,J1,2,Pin_2*%
%TO.N,Net-(J1-Pin_2)*%
X126277500Y-115040000D03*
%TD*%
D12*
%TO.P,R4,2*%
%TO.N,Net-(U1A--)*%
X153080000Y-121000000D03*
D15*
%TO.P,R4,1*%
%TO.N,GND*%
X142920000Y-121000000D03*
%TD*%
D16*
%TO.P,Rs1,1*%
%TO.N,Net-(J1-Pin_1)*%
X136500000Y-109700000D03*
%TO.P,Rs1,2*%
%TO.N,Net-(J1-Pin_2)*%
X136500000Y-115800000D03*
%TD*%
D15*
%TO.P,R6,1*%
%TO.N,U_opv1*%
X160080000Y-104250000D03*
D12*
%TO.P,R6,2*%
%TO.N,Net-(U1B--)*%
X149920000Y-104250000D03*
%TD*%
D15*
%TO.P,R5,1*%
%TO.N,GND*%
X157750000Y-117330000D03*
D12*
%TO.P,R5,2*%
%TO.N,Net-(U1B--)*%
X157750000Y-107170000D03*
%TD*%
D15*
%TO.P,R3,1*%
%TO.N,Net-(J1-Pin_1)*%
X132420000Y-110500000D03*
D12*
%TO.P,R3,2*%
%TO.N,Net-(U1A--)*%
X142580000Y-110500000D03*
%TD*%
D15*
%TO.P,R2,1*%
%TO.N,Net-(U1A-+)*%
X135920000Y-105000000D03*
D12*
%TO.P,R2,2*%
%TO.N,U_opv2*%
X146080000Y-105000000D03*
%TD*%
D15*
%TO.P,R1,1*%
%TO.N,Net-(J1-Pin_2)*%
X132420000Y-114750000D03*
D12*
%TO.P,R1,2*%
%TO.N,Net-(U1A-+)*%
X142580000Y-114750000D03*
%TD*%
D17*
%TO.N,Net-(U1A-+)*%
X142580000Y-114750000D02*
X142250000Y-114750000D01*
X142250000Y-114750000D02*
X140250000Y-112750000D01*
X146190000Y-114580000D02*
X142750000Y-114580000D01*
X142750000Y-114580000D02*
X142580000Y-114750000D01*
X140250000Y-107250000D02*
X138000000Y-105000000D01*
X140250000Y-112750000D02*
X140250000Y-107250000D01*
X138000000Y-105000000D02*
X135920000Y-105000000D01*
X146080000Y-114580000D02*
X146000000Y-114500000D01*
X146190000Y-114580000D02*
X146080000Y-114580000D01*
%TO.N,Net-(U1A--)*%
X142580000Y-110500000D02*
X144650000Y-110500000D01*
X144650000Y-110500000D02*
X146190000Y-112040000D01*
%TO.N,U_opv2*%
X153810000Y-117120000D02*
X151870000Y-117120000D01*
X151870000Y-117120000D02*
X149750000Y-115000000D01*
X149750000Y-115000000D02*
X149750000Y-111000000D01*
X149750000Y-111000000D02*
X148250000Y-109500000D01*
X148250000Y-109500000D02*
X146190000Y-109500000D01*
%TO.N,GND*%
X142920000Y-121000000D02*
X142920000Y-120390000D01*
X142920000Y-120390000D02*
X146190000Y-117120000D01*
X157750000Y-117330000D02*
X156330000Y-118750000D01*
X156330000Y-118750000D02*
X147820000Y-118750000D01*
X147820000Y-118750000D02*
X146190000Y-117120000D01*
X163972500Y-117080000D02*
X158000000Y-117080000D01*
X158000000Y-117080000D02*
X157750000Y-117330000D01*
%TO.N,Net-(U1B--)*%
X151500000Y-105830000D02*
X156410000Y-105830000D01*
X156410000Y-105830000D02*
X157750000Y-107170000D01*
X149920000Y-104250000D02*
X151500000Y-105830000D01*
X153810000Y-114580000D02*
X152580000Y-114580000D01*
X152580000Y-114580000D02*
X151500000Y-113500000D01*
X151500000Y-113500000D02*
X151500000Y-105830000D01*
%TO.N,U_opv1*%
X163972500Y-112000000D02*
X165500000Y-112000000D01*
X165500000Y-112000000D02*
X167500000Y-110000000D01*
X167500000Y-110000000D02*
X167500000Y-106500000D01*
X167500000Y-106500000D02*
X165250000Y-104250000D01*
X165250000Y-104250000D02*
X160080000Y-104250000D01*
X153810000Y-112040000D02*
X163932500Y-112040000D01*
X163932500Y-112040000D02*
X163972500Y-112000000D01*
%TO.N,VSS*%
X163892500Y-107000000D02*
X161500000Y-107000000D01*
X163972500Y-106920000D02*
X163892500Y-107000000D01*
X161500000Y-107000000D02*
X159000000Y-109500000D01*
X159000000Y-109500000D02*
X153810000Y-109500000D01*
%TD*%
%TA.AperFunction,Conductor*%
%TO.N,Net-(J1-Pin_1)*%
G36*
X139193039Y-107519685D02*
G01*
X139238794Y-107572489D01*
X139250000Y-107624000D01*
X139250000Y-111626000D01*
X139230315Y-111693039D01*
X139177511Y-111738794D01*
X139126000Y-111750000D01*
X123374000Y-111750000D01*
X123306961Y-111730315D01*
X123261206Y-111677511D01*
X123250000Y-111626000D01*
X123250000Y-107624000D01*
X123269685Y-107556961D01*
X123322489Y-107511206D01*
X123374000Y-107500000D01*
X139126000Y-107500000D01*
X139193039Y-107519685D01*
G37*
%TD.AperFunction*%
%TD*%
%TA.AperFunction,Conductor*%
%TO.N,Net-(J1-Pin_2)*%
G36*
X139193039Y-113519685D02*
G01*
X139238794Y-113572489D01*
X139250000Y-113624000D01*
X139250000Y-117126000D01*
X139230315Y-117193039D01*
X139177511Y-117238794D01*
X139126000Y-117250000D01*
X123374000Y-117250000D01*
X123306961Y-117230315D01*
X123261206Y-117177511D01*
X123250000Y-117126000D01*
X123250000Y-113624000D01*
X123269685Y-113556961D01*
X123322489Y-113511206D01*
X123374000Y-113500000D01*
X139126000Y-113500000D01*
X139193039Y-113519685D01*
G37*
%TD.AperFunction*%
%TD*%
M02*
